<svg width="597" height="301" viewBox="0 0 597 301" fill="none" xmlns="http://www.w3.org/2000/svg">
<path d="M190.05 231.2C187.483 231.2 184.8 229.217 182 225.25C179.433 221.284 178.033 217.434 177.8 213.7C175.933 200.167 173.6 184.417 170.8 166.45C168.233 148.25 164.733 126.784 160.3 102.05C153.3 115.35 146.417 128.534 139.65 141.6C132.883 154.667 126.117 167.734 119.35 180.8C115.15 188.967 110.833 193.05 106.4 193.05C99.8667 193.05 94.7333 189.667 91 182.9C82.8333 171 74.3167 159.917 65.45 149.65C56.8167 139.15 47.8333 128.767 38.5 118.5C38.0333 134.134 38.15 149.534 38.85 164.7C39.7833 179.634 41.3 194.217 43.4 208.45C43.8667 211.017 43.5167 213.35 42.35 215.45C41.4167 217.317 40.3667 218.484 39.2 218.95C35.9333 220.117 32.6667 219.417 29.4 216.85C26.1333 214.284 24.15 211.484 23.45 208.45C21.35 200.05 19.8333 190.717 18.9 180.45C17.9667 170.184 17.2667 159.8 16.8 149.3C16.5667 138.8 16.45 128.417 16.45 118.15C16.45 107.884 16.5667 98.5505 16.8 90.1505C16.8 80.8171 19.8333 76.1505 25.9 76.1505C29.6333 76.1505 32.7833 77.5505 35.35 80.3505C37.9167 82.9171 39.3167 86.6505 39.55 91.5505C51.2167 103.217 62.1833 115.234 72.45 127.6C82.95 139.734 93.1 152.1 102.9 164.7C111.067 150 119.35 134.95 127.75 119.55C136.15 103.917 145.6 88.7505 156.1 74.0505C156.567 71.4838 157.85 68.9171 159.95 66.3505C162.05 63.5505 164.383 61.6838 166.95 60.7505C169.517 59.8171 172.2 60.8671 175 63.9005C177.8 66.9338 179.667 70.4338 180.6 74.4005C184.567 97.9671 187.95 121.534 190.75 145.1C193.783 168.667 196.7 192.234 199.5 215.8C199.967 220.234 199.15 223.967 197.05 227C194.95 229.8 192.617 231.2 190.05 231.2ZM313.523 150.1C314.323 152.1 313.523 154.1 311.123 156.1C308.723 157.9 304.923 159.1 299.723 159.7C290.723 160.9 281.523 162.2 272.123 163.6C262.723 164.8 253.123 166.1 243.323 167.5C242.923 177.7 242.923 187.9 243.323 198.1C247.923 198.1 253.423 197.7 259.823 196.9C266.423 195.9 273.123 194.7 279.923 193.3C286.723 191.9 293.223 190.5 299.423 189.1C305.823 187.5 311.223 186.2 315.623 185.2C317.823 184.6 320.123 184.2 322.523 184C324.923 183.6 327.023 183.6 328.823 184C330.823 184.2 332.423 184.9 333.623 186.1C334.823 187.3 335.423 189 335.423 191.2C335.423 191.8 334.723 192.7 333.323 193.9C331.923 195.1 330.123 196.4 327.923 197.8C325.923 199 323.723 200.2 321.323 201.4C319.123 202.4 317.123 203.2 315.323 203.8C302.923 207.8 290.723 211.3 278.723 214.3C266.723 217.1 255.023 218.6 243.623 218.8C237.023 219 232.023 217.3 228.623 213.7C225.223 209.9 223.423 204.5 223.223 197.5C222.823 187.7 222.823 177.8 223.223 167.8C219.823 165.8 218.123 163 218.123 159.4C218.523 155.6 220.323 153 223.523 151.6C223.923 145.8 224.223 140 224.423 134.2C224.623 128.2 224.923 122.3 225.323 116.5C223.123 116.1 221.123 115 219.323 113.2C217.723 111.4 216.923 109.4 216.923 107.2C216.923 105.4 217.323 103.8 218.123 102.4C218.923 100.8 220.423 99.6005 222.623 98.8005C226.223 98.0005 230.623 97.1005 235.823 96.1005C241.023 95.1005 246.323 94.2005 251.723 93.4005C257.323 92.6005 262.623 91.9005 267.623 91.3005C272.823 90.7005 277.223 90.3005 280.823 90.1005C285.023 89.7005 289.023 90.1005 292.823 91.3005C296.823 92.5005 300.523 94.8005 303.923 98.2005C304.723 101 304.123 103.1 302.123 104.5C300.323 105.9 297.923 106.8 294.923 107.2C291.923 107.6 288.323 108.1 284.123 108.7C279.923 109.1 275.523 109.6 270.923 110.2C266.523 110.8 262.023 111.4 257.423 112C253.023 112.4 248.823 112.9 244.823 113.5C244.823 113.9 244.823 114.4 244.823 115C245.023 115.4 245.123 115.8 245.123 116.2C244.723 121.4 244.423 126.6 244.223 131.8C244.023 137 243.823 142.2 243.623 147.4C252.023 146 260.623 144.8 269.423 143.8C278.223 142.6 285.223 141.8 290.423 141.4C294.623 141 298.723 141.5 302.723 142.9C306.723 144.3 310.323 146.7 313.523 150.1Z" fill="black"/>
<path opacity="0.6" d="M361.842 93.7331C362.122 92.0586 362.519 90.6065 363.032 89.3766C363.554 88.0975 364.31 87.1111 365.299 86.4172C366.288 85.7234 367.568 85.2814 369.141 85.0912C370.713 84.901 372.698 85.0083 375.095 85.4132L407.907 90.9546C410.205 91.3425 412.015 91.8762 413.34 92.5556C414.672 93.1858 415.668 93.9869 416.327 94.9591C416.987 95.9313 417.334 97.0787 417.37 98.4013C417.455 99.7324 417.354 101.26 417.066 102.983L400.238 203.671C399.958 205.346 399.561 206.798 399.047 208.028C398.542 209.208 397.816 210.174 396.868 210.926C395.929 211.628 394.699 212.079 393.176 212.277C391.712 212.435 389.831 212.32 387.534 211.932L354.871 206.416C352.474 206.011 350.564 205.46 349.139 204.764C347.715 204.068 346.648 203.229 345.939 202.249C345.23 201.268 344.833 200.112 344.747 198.781C344.662 197.45 344.763 195.923 345.051 194.199L361.842 93.7331Z" fill="#E26F65"/>
<path opacity="0.6" d="M451.28 94.1063C451 92.4319 450.603 90.9798 450.09 89.7499C449.568 88.4708 448.812 87.4844 447.823 86.7905C446.834 86.0967 445.554 85.6547 443.981 85.4645C442.409 85.2743 440.424 85.3816 438.027 85.7865L405.215 91.3279C402.917 91.7158 401.107 92.2495 399.782 92.9289C398.45 93.5591 397.454 94.3602 396.795 95.3324C396.136 96.3046 395.788 97.452 395.752 98.7746C395.667 100.106 395.768 101.633 396.056 103.357L412.884 204.045C413.164 205.719 413.561 207.171 414.075 208.401C414.58 209.582 415.306 210.548 416.254 211.299C417.193 212.001 418.423 212.452 419.946 212.65C421.41 212.808 423.291 212.693 425.588 212.305L458.251 206.789C460.648 206.384 462.559 205.834 463.983 205.137C465.407 204.441 466.474 203.603 467.183 202.622C467.892 201.642 468.289 200.486 468.375 199.155C468.46 197.824 468.359 196.296 468.071 194.573L451.28 94.1063Z" fill="#88D2F5"/>
<path d="M553.359 94.2392C553.079 92.5647 552.682 91.1126 552.169 89.8827C551.647 88.6036 550.891 87.6172 549.903 86.9233C548.914 86.2295 547.633 85.7875 546.061 85.5973C544.488 85.4071 542.503 85.5144 540.106 85.9193L507.294 91.4607C504.997 91.8486 503.186 92.3823 501.861 93.0617C500.529 93.6919 499.533 94.493 498.874 95.4652C498.215 96.4374 497.867 97.5848 497.832 98.9074C497.746 100.238 497.847 101.766 498.135 103.49L514.963 204.177C515.243 205.852 515.64 207.304 516.154 208.534C516.659 209.714 517.385 210.68 518.333 211.432C519.272 212.134 520.502 212.585 522.025 212.783C523.489 212.941 525.37 212.826 527.667 212.438L560.33 206.922C562.727 206.517 564.638 205.967 566.062 205.27C567.486 204.574 568.553 203.736 569.262 202.755C569.971 201.774 570.368 200.619 570.454 199.287C570.54 197.956 570.438 196.429 570.15 194.705L553.359 94.2392Z" fill="#64B084" fill-opacity="0.6"/>
<path opacity="0.6" d="M463.842 94.1063C464.122 92.4319 464.519 90.9798 465.032 89.7499C465.554 88.4708 466.31 87.4844 467.299 86.7905C468.288 86.0967 469.568 85.6547 471.141 85.4645C472.713 85.2743 474.698 85.3816 477.095 85.7865L509.907 91.3279C512.205 91.7158 514.015 92.2495 515.34 92.9289C516.672 93.5591 517.668 94.3602 518.327 95.3324C518.987 96.3046 519.334 97.452 519.37 98.7746C519.455 100.106 519.354 101.633 519.066 103.357L502.238 204.045C501.958 205.719 501.561 207.171 501.047 208.401C500.542 209.582 499.816 210.548 498.868 211.299C497.929 212.001 496.699 212.452 495.176 212.65C493.712 212.808 491.831 212.693 489.534 212.305L456.871 206.789C454.474 206.384 452.564 205.834 451.139 205.137C449.715 204.441 448.648 203.603 447.939 202.622C447.23 201.642 446.833 200.486 446.747 199.155C446.662 197.824 446.763 196.296 447.051 194.573L463.842 94.1063Z" fill="#F2B248"/>
<path d="M374.892 194.992C374.974 195.812 374.899 197.014 374.668 198.597C374.465 199.983 373.951 201.424 373.126 202.92C372.33 204.218 371.252 205.375 369.891 206.388C368.756 207.233 367.2 207.511 365.221 207.222C361.272 203.815 358.146 199.619 355.843 194.633C355.128 188.465 354.642 181.42 354.384 173.5C354.325 165.608 354.507 157.449 354.931 149.021C355.383 140.396 356.048 131.701 356.925 122.936C358 114.199 359.229 105.789 360.613 97.7037C360.815 96.3184 361.175 94.5518 361.691 92.4039C362.405 90.2849 363.302 88.2937 364.383 86.4305C365.493 84.3693 366.743 82.7329 368.133 81.5212C369.551 80.1115 371.349 79.5658 373.526 79.884C376.099 80.2601 378.061 81.3554 379.413 83.17C380.764 84.9846 381.18 87.673 380.659 91.2351C379.304 99.1221 378.06 107.632 376.928 116.764C376.022 125.727 375.299 134.818 374.76 144.037C374.221 153.256 373.909 162.306 373.823 171.187C373.965 179.899 374.321 187.834 374.892 194.992Z" fill="black"/>
<path d="M537.979 186.992C537.896 187.812 537.971 189.014 538.202 190.597C538.405 191.983 538.919 193.424 539.744 194.92C540.54 196.218 541.619 197.375 542.98 198.388C544.114 199.233 545.67 199.511 547.649 199.222C551.598 195.815 554.724 191.619 557.027 186.633C557.742 180.465 558.229 173.42 558.486 165.5C558.545 157.608 558.363 149.449 557.939 141.021C557.487 132.396 556.822 123.701 555.945 114.936C554.871 106.199 553.641 97.7886 552.257 89.7037C552.055 88.3184 551.695 86.5518 551.179 84.4039C550.465 82.2849 549.568 80.2937 548.487 78.4305C547.377 76.3693 546.127 74.7329 544.738 73.5212C543.319 72.1115 541.521 71.5658 539.344 71.884C536.771 72.2601 534.809 73.3554 533.457 75.17C532.106 76.9846 531.69 79.673 532.211 83.2351C533.566 91.1221 534.81 99.6317 535.942 108.764C536.848 117.727 537.571 126.818 538.11 136.037C538.649 145.256 538.961 154.306 539.047 163.187C538.905 171.899 538.549 179.834 537.979 186.992Z" fill="black"/>
<path d="M432.436 113.549C431.988 120.595 431.687 128.433 431.532 137.064C431.363 145.494 431.207 154.124 431.065 162.954C430.91 171.584 430.741 180.015 430.558 188.246C430.56 196.464 430.586 203.679 430.636 209.89C436.804 208.27 443.603 206.408 451.031 204.302C458.643 202.184 466.347 200.06 474.143 197.929C481.926 195.599 489.545 193.581 497 191.875C504.626 189.956 511.543 188.487 517.752 187.466C518.303 187.428 518.96 187.585 519.722 187.934C521.247 188.633 522.07 189.88 522.191 191.676C522.366 194.27 522.042 196.297 521.217 197.756C520.379 199.015 519.343 200.087 518.111 200.972C516.864 201.658 515.526 202.35 514.096 203.048C512.85 203.733 511.716 204.712 510.694 205.984C505.104 207.965 498.969 210.083 492.289 212.339C485.61 214.594 478.746 216.862 471.699 219.142C464.652 221.423 457.605 223.703 450.557 225.983C443.51 228.263 436.923 230.513 430.794 232.731C425.204 234.712 420.81 233.907 417.613 230.314C414.416 226.721 412.803 220.616 412.775 211.998C412.602 195.773 412.613 179.536 412.807 163.285C412.988 146.836 413.452 130.467 414.198 114.18C414.336 110.763 415.159 107.901 416.665 105.594C418.354 103.275 420.472 101.829 423.019 101.256C427.206 100.372 429.768 101.401 430.706 104.345C431.814 107.076 432.39 110.144 432.436 113.549Z" fill="black"/>
<path d="M503.65 17.2291C497.43 12.433 491.22 10 485.193 10C473.144 10 463.686 18.9059 457 36.4857C450.314 18.9059 440.857 10 428.808 10C422.781 10 416.57 12.433 410.351 17.2291C398.515 26.3575 397.257 35.8612 398.285 42.2269C402.139 66.0792 445.437 82.4577 454.077 85.5001C455.029 85.8357 456.018 86 456.999 86H457.001C457.982 86 458.971 85.8357 459.923 85.5001C468.563 82.4589 511.861 66.078 515.715 42.2269C516.743 35.8612 515.485 26.3587 503.65 17.2291ZM437.211 58.7603C418.389 48.4434 415.915 41.3692 415.605 39.4478C415.21 36.9891 417.055 34.1634 421.09 31.0511C424.12 28.7136 426.788 27.4785 428.808 27.4785C432.562 27.4785 438.279 33.4422 443.07 50.1807C444.355 54.6692 445.354 59.195 446.117 63.257C443.299 61.9414 440.26 60.4313 437.211 58.7603ZM498.393 39.4466C497.175 47.0171 482.31 56.5394 467.819 63.3397C471.257 45.4243 477.907 27.4785 485.193 27.4785C487.213 27.4785 489.881 28.7136 492.91 31.0511C496.944 34.1623 498.79 36.9868 498.393 39.4466Z" fill="black"/>
</svg>
