<svg width="165" height="67" viewBox="0 0 165 67" fill="none" xmlns="http://www.w3.org/2000/svg">
<path d="M51.6339 65.7916C50.8705 65.7916 50.0724 65.2017 49.2396 64.0218C48.4762 62.842 48.0598 61.6969 47.9904 60.5865C47.4352 56.5613 46.7412 51.8768 45.9084 46.5329C45.145 41.1197 44.104 34.7349 42.7854 27.3784C40.7033 31.3343 38.656 35.2554 36.6434 39.1418C34.6308 43.0282 32.6182 46.9146 30.6056 50.8011C29.3564 53.2301 28.0725 54.4446 26.7539 54.4446C24.8106 54.4446 23.2838 53.4383 22.1734 51.4257C19.7444 47.8863 17.2113 44.5897 14.5741 41.5361C12.0063 38.4131 9.33435 35.3248 6.55834 32.2712C6.41954 36.921 6.45424 41.5014 6.66244 46.0124C6.94004 50.4541 7.39114 54.7916 8.01575 59.025C8.15455 59.7884 8.05045 60.4824 7.70345 61.107C7.42584 61.6622 7.11354 62.0092 6.76654 62.148C5.79493 62.495 4.82333 62.2868 3.85172 61.5234C2.88012 60.76 2.29021 59.9272 2.08201 59.025C1.45741 56.5266 1.00631 53.7506 0.728704 50.697C0.451103 47.6434 0.242901 44.555 0.1041 41.432C0.0347001 38.309 0 35.2207 0 32.1671C0 29.1134 0.0347001 26.3374 0.1041 23.839C0.1041 21.063 1.00631 19.675 2.81072 19.675C3.92112 19.675 4.85803 20.0914 5.62143 20.9242C6.38484 21.6876 6.80124 22.798 6.87064 24.2554C10.3407 27.7254 13.6025 31.2996 16.6561 34.9778C19.7791 38.5866 22.798 42.2648 25.7128 46.0124C28.1419 41.6402 30.6056 37.1639 33.104 32.5835C35.6024 27.9336 38.4131 23.4226 41.5361 19.0504C41.6749 18.287 42.0566 17.5236 42.6812 16.7602C43.3059 15.9274 43.9999 15.3722 44.7633 15.0946C45.5267 14.817 46.3248 15.1293 47.1576 16.0315C47.9904 16.9337 48.5456 17.9747 48.8232 19.1545C50.003 26.1639 51.0093 33.1734 51.8421 40.1828C52.7443 47.1922 53.6118 54.2017 54.4446 61.2111C54.5834 62.5297 54.3405 63.6401 53.7159 64.5424C53.0913 65.3752 52.3973 65.7916 51.6339 65.7916Z" fill="black"/>
<path d="M88.3585 41.67C88.5965 42.2648 88.3585 42.8597 87.6447 43.4545C86.9309 43.9899 85.8006 44.3468 84.254 44.5253C81.5771 44.8822 78.8408 45.2689 76.0449 45.6853C73.2491 46.0422 70.3937 46.4288 67.4789 46.8452C67.3599 49.879 67.3599 52.9128 67.4789 55.9466C68.8471 55.9466 70.483 55.8276 72.3865 55.5897C74.3496 55.2923 76.3423 54.9354 78.3649 54.519C80.3874 54.1025 82.3207 53.6861 84.1648 53.2697C86.0683 52.7939 87.6744 52.4072 88.9831 52.1098C89.6375 51.9313 90.3216 51.8123 91.0354 51.7528C91.7492 51.6339 92.3738 51.6339 92.9092 51.7528C93.5041 51.8123 93.98 52.0205 94.3369 52.3774C94.6938 52.7344 94.8723 53.24 94.8723 53.8943C94.8723 54.0728 94.664 54.3405 94.2477 54.6974C93.8312 55.0543 93.2959 55.441 92.6415 55.8574C92.0467 56.2143 91.3923 56.5712 90.6785 56.9281C90.0241 57.2256 89.4293 57.4635 88.8939 57.642C85.2058 58.8317 81.5771 59.8727 78.0079 60.765C74.4388 61.5978 70.9589 62.0439 67.5682 62.1034C65.6051 62.1629 64.118 61.6573 63.1067 60.5865C62.0954 59.4563 61.5601 57.8502 61.5006 55.7682C61.3816 52.8533 61.3816 49.9088 61.5006 46.9345C60.4893 46.3396 59.9837 45.5068 59.9837 44.4361C60.1026 43.3058 60.638 42.5325 61.5898 42.1161C61.7088 40.391 61.798 38.6659 61.8575 36.9408C61.917 35.1562 62.0062 33.4014 62.1252 31.6763C61.4708 31.5573 60.876 31.2302 60.3406 30.6948C59.8647 30.1594 59.6268 29.5645 59.6268 28.9102C59.6268 28.3748 59.7457 27.8989 59.9837 27.4825C60.2216 27.0066 60.6678 26.6497 61.3221 26.4118C62.3929 26.1738 63.7016 25.9062 65.2482 25.6087C66.7948 25.3113 68.3712 25.0436 69.9773 24.8057C71.6429 24.5677 73.2193 24.3595 74.7065 24.1811C76.2531 24.0026 77.5618 23.8836 78.6326 23.8241C79.8818 23.7052 81.0715 23.8241 82.2017 24.1811C83.3914 24.538 84.4919 25.2221 85.5032 26.2333C85.7411 27.0661 85.5627 27.6907 84.9678 28.1071C84.4324 28.5235 83.7186 28.7912 82.8263 28.9102C81.934 29.0292 80.8633 29.1779 79.6141 29.3563C78.3649 29.4753 77.0562 29.624 75.688 29.8025C74.3793 29.9809 73.0409 30.1594 71.6727 30.3379C70.364 30.4568 69.1148 30.6056 67.9251 30.784C67.9251 30.903 67.9251 31.0517 67.9251 31.2302C67.9846 31.3491 68.0143 31.4681 68.0143 31.5871C67.8953 33.1337 67.8061 34.6803 67.7466 36.227C67.6871 37.7736 67.6276 39.3203 67.5682 40.8669C70.0666 40.4505 72.6245 40.0936 75.2419 39.7962C77.8592 39.4392 79.9413 39.2013 81.4879 39.0823C82.7371 38.9633 83.9566 39.1121 85.1463 39.5285C86.336 39.9449 87.4068 40.6587 88.3585 41.67Z" fill="black"/>
<path opacity="0.6" d="M102.73 24.9046C102.813 24.4066 102.931 23.9747 103.084 23.6089C103.239 23.2284 103.464 22.935 103.758 22.7287C104.052 22.5223 104.433 22.3908 104.9 22.3343C105.368 22.2777 105.958 22.3096 106.671 22.43L116.431 24.0782C117.114 24.1936 117.653 24.3523 118.047 24.5544C118.443 24.7418 118.739 24.9801 118.935 25.2693C119.131 25.5584 119.235 25.8997 119.245 26.2931C119.271 26.689 119.241 27.1433 119.155 27.6559L114.15 57.6035C114.066 58.1016 113.948 58.5335 113.796 58.8993C113.645 59.2504 113.429 59.5378 113.148 59.7613C112.868 59.9702 112.502 60.1041 112.049 60.1632C111.614 60.2102 111.054 60.1759 110.371 60.0605L100.656 58.4199C99.9434 58.2995 99.375 58.1357 98.9514 57.9286C98.5278 57.7215 98.2106 57.4722 97.9997 57.1805C97.7888 56.8888 97.6706 56.5451 97.6451 56.1492C97.6196 55.7533 97.6497 55.299 97.7354 54.7863L102.73 24.9046Z" fill="#E26F65"/>
<path opacity="0.6" d="M129.331 25.0154C129.248 24.5174 129.13 24.0855 128.977 23.7197C128.822 23.3393 128.597 23.0459 128.303 22.8395C128.009 22.6331 127.628 22.5017 127.161 22.4451C126.693 22.3885 126.103 22.4204 125.39 22.5409L115.63 24.189C114.947 24.3044 114.408 24.4632 114.014 24.6652C113.618 24.8527 113.322 25.091 113.126 25.3801C112.93 25.6693 112.826 26.0105 112.816 26.4039C112.79 26.7998 112.82 27.2541 112.906 27.7668L117.911 57.7144C117.995 58.2124 118.113 58.6443 118.265 59.0101C118.416 59.3613 118.632 59.6486 118.913 59.8721C119.193 60.081 119.559 60.215 120.012 60.2741C120.447 60.321 121.007 60.2868 121.69 60.1714L131.405 58.5307C132.118 58.4103 132.686 58.2465 133.11 58.0395C133.533 57.8324 133.85 57.583 134.061 57.2913C134.272 56.9997 134.39 56.6559 134.416 56.26C134.441 55.8641 134.411 55.4098 134.326 54.8971L129.331 25.0154Z" fill="#88D2F5"/>
<path d="M159.693 25.055C159.609 24.557 159.491 24.1251 159.339 23.7593C159.183 23.3788 158.959 23.0854 158.665 22.8791C158.371 22.6727 157.99 22.5412 157.522 22.4846C157.054 22.4281 156.464 22.46 155.751 22.5804L145.992 24.2286C145.308 24.344 144.77 24.5027 144.376 24.7048C143.979 24.8922 143.683 25.1305 143.487 25.4197C143.291 25.7088 143.188 26.0501 143.177 26.4435C143.152 26.8394 143.182 27.2937 143.267 27.8063L148.273 57.7539C148.356 58.252 148.474 58.6839 148.627 59.0497C148.777 59.4008 148.993 59.6881 149.275 59.9117C149.554 60.1205 149.92 60.2545 150.373 60.3136C150.808 60.3605 151.368 60.3263 152.051 60.2109L161.766 58.5703C162.479 58.4498 163.047 58.2861 163.471 58.079C163.895 57.8719 164.212 57.6225 164.423 57.3309C164.634 57.0392 164.752 56.6954 164.777 56.2995C164.803 55.9036 164.773 55.4494 164.687 54.9367L159.693 25.055Z" fill="#64B084" fill-opacity="0.6"/>
<path opacity="0.6" d="M133.068 25.0154C133.151 24.5174 133.269 24.0855 133.422 23.7197C133.577 23.3393 133.801 23.0459 134.096 22.8395C134.39 22.6331 134.771 22.5017 135.238 22.4451C135.706 22.3885 136.296 22.4204 137.009 22.5409L146.769 24.189C147.452 24.3044 147.991 24.4632 148.385 24.6652C148.781 24.8527 149.077 25.091 149.273 25.3801C149.469 25.6693 149.572 26.0105 149.583 26.4039C149.609 26.7998 149.578 27.2541 149.493 27.7668L144.488 57.7144C144.404 58.2124 144.286 58.6443 144.134 59.0101C143.983 59.3613 143.767 59.6486 143.485 59.8721C143.206 60.081 142.84 60.215 142.387 60.2741C141.952 60.321 141.392 60.2868 140.709 60.1714L130.994 58.5307C130.281 58.4103 129.713 58.2465 129.289 58.0395C128.866 57.8324 128.548 57.583 128.338 57.2913C128.127 56.9997 128.008 56.6559 127.983 56.26C127.958 55.8641 127.988 55.4098 128.073 54.8971L133.068 25.0154Z" fill="#F2B248"/>
<path d="M106.611 55.022C106.636 55.266 106.614 55.6235 106.545 56.0944C106.485 56.5064 106.332 56.935 106.086 57.38C105.85 57.7663 105.529 58.1101 105.124 58.4117C104.787 58.663 104.324 58.7456 103.735 58.6595C102.561 57.6462 101.631 56.3981 100.946 54.9153C100.733 53.0806 100.589 50.9854 100.512 48.6296C100.494 46.2824 100.549 43.8555 100.674 41.349C100.809 38.7836 101.007 36.1973 101.268 33.5903C101.587 30.9918 101.953 28.4902 102.365 26.0855C102.425 25.6735 102.532 25.1481 102.685 24.5092C102.898 23.8789 103.164 23.2867 103.486 22.7325C103.816 22.1195 104.188 21.6328 104.601 21.2724C105.023 20.8531 105.558 20.6908 106.205 20.7854C106.971 20.8973 107.554 21.2231 107.956 21.7628C108.358 22.3025 108.482 23.1021 108.327 24.1616C107.924 26.5074 107.554 29.0384 107.217 31.7546C106.948 34.4205 106.733 37.1245 106.572 39.8665C106.412 42.6085 106.319 45.3002 106.294 47.9417C106.336 50.533 106.442 52.8931 106.611 55.022Z" fill="black"/>
<path d="M155.118 52.6431C155.094 52.8871 155.116 53.2446 155.185 53.7155C155.245 54.1275 155.398 54.5561 155.644 55.0011C155.88 55.3873 156.201 55.7312 156.606 56.0328C156.943 56.284 157.406 56.3667 157.995 56.2806C159.169 55.2673 160.099 54.0192 160.784 52.5364C160.997 50.7017 161.141 48.6065 161.218 46.2507C161.236 43.9035 161.181 41.4766 161.055 38.9701C160.921 36.4047 160.723 33.8184 160.462 31.2113C160.143 28.6129 159.777 26.1113 159.365 23.7066C159.305 23.2946 159.198 22.7692 159.045 22.1303C158.832 21.5 158.565 20.9078 158.244 20.3536C157.914 19.7406 157.542 19.2538 157.129 18.8934C156.707 18.4742 156.172 18.3119 155.525 18.4065C154.759 18.5184 154.176 18.8442 153.774 19.3839C153.372 19.9236 153.248 20.7232 153.403 21.7827C153.806 24.1285 154.176 26.6595 154.513 29.3757C154.782 32.0416 154.997 34.7456 155.158 37.4876C155.318 40.2296 155.411 42.9213 155.436 45.5628C155.394 48.1541 155.288 50.5141 155.118 52.6431Z" fill="black"/>
<path d="M123.727 30.7987C123.594 32.8945 123.504 35.2258 123.458 37.7926C123.408 40.3001 123.361 42.867 123.319 45.4932C123.273 48.06 123.223 50.5675 123.168 53.0157C123.169 55.4602 123.177 57.606 123.192 59.4533C125.026 58.9716 127.048 58.4176 129.258 57.7914C131.522 57.1614 133.813 56.5296 136.132 55.896C138.447 55.203 140.713 54.6027 142.93 54.0951C145.198 53.5245 147.256 53.0874 149.102 52.7838C149.266 52.7727 149.462 52.8191 149.689 52.923C150.142 53.1309 150.387 53.5019 150.423 54.036C150.475 54.8076 150.378 55.4103 150.133 55.8443C149.884 56.2188 149.576 56.5378 149.209 56.801C148.838 57.0049 148.44 57.2107 148.015 57.4183C147.645 57.6222 147.307 57.9133 147.003 58.2916C145.341 58.8809 143.516 59.5109 141.529 60.1818C139.542 60.8526 137.501 61.5271 135.405 62.2054C133.309 62.8836 131.213 63.5618 129.117 64.24C127.021 64.9182 125.061 65.5872 123.239 66.247C121.576 66.8363 120.269 66.5967 119.318 65.5281C118.367 64.4595 117.888 62.6437 117.879 60.0805C117.828 55.2546 117.831 50.4251 117.889 45.5918C117.943 40.6992 118.081 35.8307 118.302 30.9864C118.344 29.97 118.588 29.1188 119.036 28.4327C119.539 27.7429 120.169 27.3128 120.926 27.1423C122.171 26.8793 122.933 27.1856 123.212 28.0611C123.542 28.8735 123.713 29.786 123.727 30.7987Z" fill="black"/>
<path d="M143.651 1.99752C141.964 0.672278 140.28 0 138.646 0C135.378 0 132.813 2.46083 131 7.31843C129.187 2.46083 126.622 0 123.355 0C121.72 0 120.036 0.672278 118.35 1.99752C115.14 4.51985 114.799 7.14585 115.077 8.90479C116.123 15.4956 127.864 20.0212 130.207 20.8619C130.466 20.9546 130.734 21 131 21H131C131.266 21 131.534 20.9546 131.793 20.8619C134.136 20.0215 145.877 15.4952 146.923 8.90479C147.201 7.14585 146.86 4.52017 143.651 1.99752ZM125.633 13.4733C120.529 10.6225 119.858 8.66782 119.774 8.13688C119.667 7.45752 120.167 6.67674 121.262 5.81675C122.083 5.17088 122.807 4.82958 123.355 4.82958C124.373 4.82958 125.923 6.47744 127.222 11.1026C127.571 12.3428 127.842 13.5933 128.049 14.7157C127.284 14.3522 126.46 13.935 125.633 13.4733ZM142.225 8.13656C141.895 10.2284 137.864 12.8596 133.934 14.7386C134.866 9.78828 136.67 4.82958 138.646 4.82958C139.193 4.82958 139.917 5.17088 140.738 5.81675C141.832 6.67642 142.333 7.45688 142.225 8.13656Z" fill="black"/>
</svg>
