<svg width="263" height="101" viewBox="0 0 263 101" fill="none" xmlns="http://www.w3.org/2000/svg">
<path d="M100.024 100.849C98.5572 100.849 97.0235 99.7157 95.4231 97.4484C93.9561 95.1812 93.1559 92.9807 93.0225 90.8468C91.9556 83.1116 90.6219 74.1094 89.0215 63.8402C87.5545 53.4376 85.554 41.1679 83.0201 27.0311C79.0191 34.633 75.0848 42.1681 71.2171 49.6367C67.3495 57.1052 63.4819 64.5737 59.6143 72.0422C57.2137 76.71 54.7464 79.0439 52.2125 79.0439C48.4782 79.0439 45.5442 77.1101 43.4103 73.2425C38.7425 66.4408 33.8746 60.1059 28.8067 54.2378C23.8722 48.2363 18.7376 42.3015 13.4029 36.4334C13.1362 45.3689 13.2029 54.1711 13.603 62.8399C14.1364 71.3753 15.0033 79.7107 16.2036 87.8461C16.4703 89.3131 16.2703 90.6468 15.6035 91.8471C15.07 92.914 14.4698 93.5808 13.803 93.8475C11.9359 94.5144 10.0688 94.1143 8.20163 92.6472C6.3345 91.1802 5.20089 89.5798 4.80079 87.8461C3.60049 83.0449 2.73361 77.7102 2.20015 71.8421C1.66668 65.974 1.26659 60.0392 0.999854 54.0377C0.866488 48.0363 0.799805 42.1015 0.799805 36.2334C0.799805 30.3652 0.866488 25.0306 0.999854 20.2294C0.999854 14.8948 2.73361 12.2274 6.20113 12.2274C8.33499 12.2274 10.1354 13.0276 11.6025 14.628C13.0695 16.0951 13.8697 18.2289 14.0031 21.0296C20.6714 27.6979 26.9396 34.5663 32.8077 41.6347C38.8092 48.5697 44.6106 55.6381 50.212 62.8399C54.8798 54.4378 59.6143 45.8357 64.4155 37.0335C69.2167 28.098 74.618 19.4292 80.6195 11.0271C80.8862 9.56011 81.6197 8.09308 82.82 6.62606C84.0203 5.02566 85.354 3.95873 86.821 3.42526C88.288 2.8918 89.8217 3.49194 91.4221 5.22571C93.0225 6.95947 94.0894 8.95996 94.6229 11.2272C96.8901 24.6972 98.824 38.1672 100.424 51.6371C102.158 65.1071 103.825 78.5771 105.426 92.0471C105.692 94.5811 105.226 96.7149 104.025 98.4487C102.825 100.049 101.491 100.849 100.024 100.849Z" fill="black"/>
<path d="M162.54 52.4373C157.338 55.5048 151.737 57.9054 145.736 59.6391C139.734 61.2395 133.266 62.0397 126.331 62.0397C126.597 66.7075 127.931 70.4418 130.332 73.2425C132.732 75.9098 135.733 77.5102 139.334 78.0437C141.468 78.3104 143.602 78.2437 145.736 77.8436C148.003 77.4435 150.07 76.8434 151.937 76.0432C153.938 75.1096 155.738 74.1093 157.338 73.0424C158.939 71.9755 160.339 70.9086 161.539 69.8416C162.74 68.7747 164.007 68.1079 165.34 67.8411C166.674 67.441 167.674 67.3744 168.341 67.6411C170.208 68.3079 170.875 70.3084 170.342 73.6426C168.208 77.9103 165.14 81.5779 161.139 84.6453C157.138 87.5793 152.671 89.4465 147.736 90.2467C143.468 91.0469 139.067 90.8468 134.533 89.6465C129.998 88.4462 125.931 86.1123 122.33 82.6448C119.262 79.5774 116.928 75.9765 115.328 71.8421C113.728 67.7078 112.727 63.4401 112.327 59.039C111.927 54.9046 112.261 50.9703 113.328 47.2361C114.528 43.5018 116.328 40.2343 118.729 37.4336C121.129 34.4996 124.13 32.099 127.731 30.2319C131.332 28.3647 135.533 27.2978 140.334 27.0311C146.069 26.631 151.27 27.6979 155.938 30.2319C160.606 32.7658 163.873 36.3 165.74 40.8345C166.807 43.3684 167.074 45.569 166.541 47.4361C166.141 49.3032 164.807 50.9703 162.54 52.4373ZM139.534 38.834C138.2 39.1007 136.733 39.5675 135.133 40.2343C133.666 40.9012 132.266 41.768 130.932 42.835C129.732 43.7685 128.598 44.9022 127.531 46.2358C126.597 47.4361 126.064 48.8365 125.931 50.4369C128.198 50.4369 130.665 50.2368 133.332 49.8367C136.133 49.4366 138.8 48.9698 141.334 48.4364C144.002 47.7695 146.402 47.036 148.536 46.2358C150.803 45.4356 152.671 44.5687 154.138 43.6352C153.071 41.1012 151.07 39.5675 148.136 39.034C145.335 38.3672 142.468 38.3005 139.534 38.834Z" fill="black"/>
<path d="M221.516 83.8184L226.146 83.4114L232.969 91.7581L232.189 82.8802L236.863 82.4694L238.274 98.5174L233.599 98.9283L226.815 90.6444L227.589 99.4565L222.926 99.8664L221.516 83.8184Z" fill="black"/>
<path d="M254.634 87.4419L253.708 84.2205L261.102 82.0969L262.998 88.6981C261.86 90.0693 260.796 91.0876 259.805 91.7532C258.82 92.4097 257.581 92.9523 256.088 93.3811C254.25 93.909 252.661 94.0265 251.319 93.7335C249.984 93.4386 248.818 92.7635 247.822 91.7082C246.832 90.651 246.106 89.3197 245.645 87.7143C245.16 86.0244 245.087 84.4561 245.426 83.0096C245.763 81.556 246.511 80.3122 247.67 79.278C248.575 78.4768 249.915 77.8213 251.69 77.3116C253.401 76.8201 254.723 76.6079 255.657 76.675C256.598 76.7401 257.441 77.0202 258.185 77.5152C258.934 78.0012 259.594 78.7037 260.162 79.6227L255.784 81.7723C255.426 81.2425 254.973 80.8884 254.427 80.71C253.887 80.5297 253.265 80.5406 252.561 80.7429C251.512 81.0442 250.779 81.6511 250.363 82.5634C249.951 83.4666 249.972 84.7068 250.425 86.2841C250.907 87.9599 251.564 89.0669 252.397 89.6051C253.237 90.1413 254.22 90.2476 255.347 89.924C255.882 89.7703 256.37 89.5462 256.811 89.2517C257.253 88.9573 257.733 88.5334 258.253 87.9802L257.834 86.5227L254.634 87.4419Z" fill="black"/>
<path d="M206.5 82.3148L211.385 83.3279L208.114 99.1021L203.229 98.0891L206.5 82.3148Z" fill="black"/>
<path d="M183.45 74.8737L197.868 79.4668L196.661 83.2572L191.823 81.7161L188.141 93.2756L183.398 91.7646L187.08 80.2051L182.243 78.6641L183.45 74.8737Z" fill="black"/>
<path d="M196.731 52.6085C197.487 54.2192 197.851 55.9738 197.823 57.8724C197.907 59.6728 197.33 60.9134 196.092 61.5943C194.517 62.47 192.844 62.3946 191.074 61.3683C189.304 60.342 187.986 58.9727 187.119 57.2604C185.924 55.1433 185.014 52.5808 184.391 49.5729C183.768 46.465 183.312 43.4096 183.023 40.4067C182.734 37.4039 182.523 36.6011 182.451 34.0013C182.49 31.4032 182.52 29.4546 182.539 28.1556C182.672 26.7583 183.138 25.466 183.937 24.2787C184.736 23.0914 185.751 22.4072 186.981 22.2259C188.988 22.3563 190.592 23.2302 191.795 24.8476C193 26.3651 193.529 28.2722 193.382 30.5688C193.355 32.3675 193.381 34.3669 193.459 36.5669C193.537 38.767 193.757 38.9703 194.059 41.1737C194.36 43.3772 194.718 45.5315 195.132 47.6368C195.548 49.6421 196.081 51.2993 196.731 52.6085Z" fill="black"/>
<path d="M220.488 7.54146C220.881 18.4419 221.688 27.7495 222.857 38.9616C224.02 50.5734 224.346 51.178 225.747 61.794C226.015 66.1958 224.642 68.4239 221.629 68.4781C220.959 68.468 220.293 68.258 219.629 67.8481C218.968 67.3384 218.363 66.7295 217.816 66.0215C217.269 65.3136 216.722 64.5557 216.177 63.7478C215.743 62.9416 215.474 62.2379 215.372 61.6367C214.557 56.5269 213.794 51.6178 213.099 45.9101C212.405 40.2025 212.868 44.3574 212.147 38.7993C211.67 33.4947 211.253 27.8412 210.89 22.3385C210.527 16.8357 210.295 13.7837 210.253 9.18541C210.512 6.79055 210.933 4.79793 211.515 3.20755C212.099 1.51726 213.282 0.7356 215.066 0.862583C216.961 0.991258 218.289 1.71104 219.05 3.02193C219.924 4.23458 220.404 5.74109 220.488 7.54146Z" fill="black"/>
<path d="M255.496 53.4993C256.253 55.11 256.617 56.8646 256.588 58.7632C256.673 60.5636 256.096 61.8042 254.858 62.4851C253.283 63.3608 251.61 63.2854 249.84 62.2591C248.07 61.2328 246.752 59.8635 245.885 58.1512C244.69 56.0341 243.78 53.4716 243.156 50.4637C242.534 47.3558 242.078 44.3004 241.789 41.2976C241.5 38.2947 241.289 37.4919 241.216 34.8921C241.256 32.294 241.285 30.3454 241.305 29.0464C241.438 27.6491 241.904 26.3568 242.703 25.1695C243.502 23.9822 244.517 23.298 245.747 23.1167C247.753 23.2471 249.358 24.121 250.561 25.7384C251.765 27.2559 252.295 29.163 252.148 31.4596C252.121 33.2583 252.146 35.2577 252.225 37.4578C252.303 39.6578 252.523 39.8611 252.824 42.0645C253.126 44.268 253.484 46.4223 253.898 48.5276C254.314 50.5329 254.847 52.1901 255.496 53.4993Z" fill="black"/>
<path d="M194.288 12.0434C194.237 15.3576 191.51 18.0035 188.196 17.9533C184.882 17.903 182.236 15.1757 182.286 11.8615C182.336 8.54737 185.064 5.90145 188.378 5.95169C191.692 6.00193 194.338 8.7293 194.288 12.0434Z" fill="black"/>
<path d="M251.795 12.9152C251.745 16.2293 249.018 18.8752 245.703 18.825C242.389 18.7748 239.743 16.0474 239.794 12.7333C239.844 9.41911 242.571 6.77319 245.885 6.82343C249.2 6.87367 251.845 9.60104 251.795 12.9152Z" fill="black"/>
</svg>
